<?xml version="1.0" encoding="iso-8859-1"?>
<!-- Generator: Adobe Illustrator 19.1.0, SVG Export Plug-In . SVG Version: 6.00 Build 0)  -->
<svg version="1.1" id="Capa_1" xmlns="http://www.w3.org/2000/svg" xmlns:xlink="http://www.w3.org/1999/xlink" x="0px" y="0px"
	 viewBox="0 0 65 65" style="enable-background:new 0 0 65 65;" xml:space="preserve">
<g>
	<g id="group-25svg">
		<path id="path-1_17_" style="fill:#53ECF4;" d="M42,22.492H27.784H11V5.481h31V22.492z"/>
		<path id="path-2_17_" style="fill:#EDC951;" d="M56,28.497h-5V19.49h5V28.497z"/>
		<path id="path-3_17_" style="fill:#99746A;" d="M4,35.501h61v-7.005H4V35.501z"/>
		<path id="path-4_17_" style="fill:#99746A;" d="M4,35.501v28.02h5.872l2-28.02H4z"/>
		<path id="path-5_17_" style="fill:#99746A;" d="M57.872,35.501l2,28.02H65v-28.02H57.872z"/>
		<path id="path-6_16_" d="M62.5,34.501h-61C0.672,34.501,0,33.828,0,33v-7.005c0-0.829,0.672-1.501,1.5-1.501h61
			c0.828,0,1.5,0.672,1.5,1.501V33C64,33.828,63.328,34.501,62.5,34.501z M3,31.499h58v-4.003H3V31.499z"/>
		<path id="path-7_16_" d="M6.872,62.521H1.5c-0.828,0-1.5-0.672-1.5-1.501V33c0-0.829,0.672-1.501,1.5-1.501h7.372
			c0.416,0,0.814,0.172,1.098,0.477c0.284,0.305,0.427,0.715,0.398,1.13l-2,28.019C8.312,61.911,7.659,62.521,6.872,62.521z
			 M3,59.518h2.476l1.785-25.017H3V59.518z"/>
		<path id="path-8_15_" d="M62.5,62.521h-5.628c-0.787,0-1.44-0.609-1.496-1.395l-2-28.019c-0.029-0.415,0.114-0.825,0.398-1.13
			c0.284-0.305,0.682-0.477,1.098-0.477H62.5c0.828,0,1.5,0.672,1.5,1.501V61.02C64,61.848,63.328,62.521,62.5,62.521z
			 M58.269,59.518H61V34.501h-4.517L58.269,59.518z"/>
		<path id="path-9_15_" d="M39.5,21.492h-31c-0.828,0-1.5-0.673-1.5-1.501V2.979C7,2.15,7.672,1.478,8.5,1.478h31
			c0.828,0,1.5,0.672,1.5,1.501v17.012C41,20.819,40.328,21.492,39.5,21.492z M10,18.49h28V4.48H10V18.49z"/>
		<path id="path-10_15_" d="M24.5,26.995c-0.828,0-1.5-0.672-1.5-1.501v-5.003c0-0.829,0.672-1.501,1.5-1.501s1.5,0.672,1.5,1.501
			v5.003C26,26.323,25.328,26.995,24.5,26.995z"/>
		<path id="path-11_12_" d="M39,8.483H9c-0.553,0-1-0.448-1-1.001s0.447-1.001,1-1.001h30c0.553,0,1,0.448,1,1.001
			S39.553,8.483,39,8.483z"/>
		<path id="path-12_9_" d="M39,16.489H9c-0.553,0-1-0.447-1-1.001c0-0.553,0.447-1,1-1h30c0.553,0,1,0.447,1,1
			C40,16.042,39.553,16.489,39,16.489z"/>
		<path id="path-13_7_" d="M53.5,27.497h-5c-0.828,0-1.5-0.673-1.5-1.501v-9.007c0-0.828,0.672-1.501,1.5-1.501h5
			c0.828,0,1.5,0.673,1.5,1.501v9.007C55,26.823,54.328,27.497,53.5,27.497z M50,24.494h2V18.49h-2V24.494z"/>
		<path id="path-14_5_" d="M57.5,23.993c-0.828,0-1.5-0.672-1.5-1.501v-2.001h-2c-0.828,0-1.5-0.672-1.5-1.501
			s0.672-1.501,1.5-1.501h3.5c0.828,0,1.5,0.672,1.5,1.501v3.502C59,23.321,58.328,23.993,57.5,23.993z"/>
		<path id="path-15_3_" d="M51.748,15.533c-0.453,0-0.9-0.204-1.195-0.593l-0.537-0.707c-1.056-1.394-1.149-3.169-0.243-4.637
			l0.699-1.128c0.435-0.706,1.36-0.923,2.064-0.487c0.705,0.436,0.923,1.362,0.486,2.066l-0.697,1.128
			c-0.319,0.518-0.133,0.962,0.08,1.243l0.536,0.707c0.501,0.659,0.373,1.601-0.287,2.103
			C52.383,15.434,52.064,15.533,51.748,15.533z"/>
	</g>
</g>
<g>
</g>
<g>
</g>
<g>
</g>
<g>
</g>
<g>
</g>
<g>
</g>
<g>
</g>
<g>
</g>
<g>
</g>
<g>
</g>
<g>
</g>
<g>
</g>
<g>
</g>
<g>
</g>
<g>
</g>
</svg>
